<svg xmlns="http://www.w3.org/2000/svg" viewBox="0 0 400 400" width="400" height="400">
  <g fill="none" stroke-linecap="round" stroke-linejoin="round">
    <path d="M 70 110 L 330 110 L 330 290 L 70 290 Z" stroke="rgba(245, 184, 65, 0.35)" fill="none" stroke-width="2"/>
    <line x1="82" y1="130" x2="130" y2="130" stroke="rgba(245, 184, 65, 0.15)" stroke-width="1"/>
    <line x1="82" y1="142" x2="110" y2="142" stroke="rgba(245, 184, 65, 0.15)" stroke-width="1"/>
    <line x1="80" y1="240" x2="320" y2="240" stroke="rgba(245, 184, 65, 0.15)" stroke-width="1" stroke-dasharray="3 4"/>
    <line x1="80" y1="190" x2="320" y2="190" stroke="rgba(245, 184, 65, 0.15)" stroke-width="1" stroke-dasharray="3 4"/>
    <path d="M 100 250 L 130 235 L 165 245 L 200 215 L 240 205 L 270 170 L 300 180" stroke="#F5B841" fill="none" stroke-width="2"/>
    <circle cx="100" cy="250" r="4" fill="#F5B841"/>
    <circle cx="130" cy="235" r="4" fill="#F5B841"/>
    <circle cx="165" cy="245" r="4" fill="#F5B841"/>
    <circle cx="200" cy="215" r="4" fill="#F5B841"/>
    <circle cx="240" cy="205" r="4" fill="#F5B841"/>
    <circle cx="270" cy="170" r="4" fill="#F5B841"/>
    <circle cx="300" cy="180" r="4" fill="#F5B841"/>
    <circle cx="300" cy="180" r="9" stroke="#F5B841" fill="none" stroke-width="2"/>
    <circle cx="360" cy="300" r="18" stroke="rgba(245, 184, 65, 0.35)" fill="none" stroke-width="2"/>
    <line x1="373" y1="313" x2="388" y2="328" stroke="#F5B841" stroke-width="2"/>
  </g>
</svg>