<svg xmlns="http://www.w3.org/2000/svg" viewBox="0 0 1440 3200" font-family="Inter, system-ui, sans-serif">
  <!-- Background -->
  <rect width="1440" height="3200" fill="#0B0B0F"/>

  <!-- ========================================== -->
  <!-- ========== TOP NAV (PUBLIC) ============== -->
  <!-- ========================================== -->
  <rect x="0" y="0" width="1440" height="72" fill="#0B0B0F"/>
  <line x1="0" y1="72" x2="1440" y2="72" stroke="#15151C" stroke-width="1"/>

  <!-- Logo -->
  <rect x="80" y="26" width="4" height="20" fill="#D4AF37"/>
  <text x="92" y="42" fill="#F5F5F7" font-size="16" font-weight="700">DeFi Akademie</text>

  <!-- Nav Items -->
  <text x="980" y="43" fill="#9A9AA8" font-size="14" font-weight="500">Kurse</text>
  <text x="1040" y="43" fill="#9A9AA8" font-size="14" font-weight="500">Preise</text>
  <text x="1110" y="43" fill="#9A9AA8" font-size="14" font-weight="500">Login</text>

  <!-- CTA -->
  <rect x="1180" y="20" width="180" height="36" rx="18" fill="#D4AF37"/>
  <text x="1270" y="43" fill="#0B0B0F" font-size="13" font-weight="700" text-anchor="middle">Kostenlos starten  →</text>

  <!-- ========================================== -->
  <!-- ========== HERO SECTION ================== -->
  <!-- ========================================== -->

  <!-- Subtle background glow -->
  <defs>
    <radialGradient id="heroGlow" cx="50%" cy="40%" r="60%">
      <stop offset="0%" stop-color="#D4AF37" stop-opacity="0.08"/>
      <stop offset="100%" stop-color="#D4AF37" stop-opacity="0"/>
    </radialGradient>
  </defs>
  <rect x="0" y="72" width="1440" height="640" fill="url(#heroGlow)"/>

  <!-- Small label -->
  <rect x="616" y="160" width="208" height="32" rx="16" fill="#15151C" stroke="#2A2A35"/>
  <circle cx="640" cy="176" r="3" fill="#D4AF37"/>
  <text x="720" y="181" fill="#9A9AA8" font-size="12" font-weight="500" text-anchor="middle">Strukturiert · Technisch · Ohne Hype</text>

  <!-- Main headline -->
  <text x="720" y="276" fill="#F5F5F7" font-size="68" font-weight="700" text-anchor="middle">DeFi verstehen.</text>
  <text x="720" y="348" fill="#D4AF37" font-size="68" font-weight="700" text-anchor="middle">Ohne Hype.</text>

  <!-- Subheadline -->
  <text x="720" y="410" fill="#9A9AA8" font-size="20" text-anchor="middle">17 Module. 102 Lektionen. Strukturiertes Wissen zu Protokollen,</text>
  <text x="720" y="438" fill="#9A9AA8" font-size="20" text-anchor="middle">Liquidity, Lending, Risiken und Strategien.</text>

  <!-- CTAs -->
  <rect x="540" y="488" width="180" height="52" rx="26" fill="#D4AF37"/>
  <text x="630" y="521" fill="#0B0B0F" font-size="15" font-weight="700" text-anchor="middle">Kostenlos starten  →</text>

  <rect x="740" y="488" width="180" height="52" rx="26" fill="transparent" stroke="#2A2A35" stroke-width="1.5"/>
  <text x="830" y="521" fill="#F5F5F7" font-size="15" font-weight="600" text-anchor="middle">Kurs ansehen</text>

  <!-- Trust line -->
  <text x="720" y="592" fill="#6B6B78" font-size="13" text-anchor="middle">
    <tspan>Keine Kreditkarte erforderlich  ·  Module 1–3 dauerhaft kostenlos  ·  Deutschsprachig</tspan>
  </text>

  <!-- Divider -->
  <line x1="80" y1="712" x2="1360" y2="712" stroke="#15151C"/>

  <!-- ========================================== -->
  <!-- ========== SECTION: WAS DU LERNST ======== -->
  <!-- ========================================== -->

  <text x="80" y="804" fill="#6B6B78" font-size="11" font-weight="600" letter-spacing="1.5">WAS DU LERNST</text>
  <text x="80" y="848" fill="#F5F5F7" font-size="36" font-weight="700">Vier klare Lernstufen</text>
  <rect x="80" y="864" width="48" height="2" fill="#D4AF37"/>
  <text x="80" y="900" fill="#9A9AA8" font-size="16">Von den absoluten Grundlagen bis zu fortgeschrittenen DeFi-Strategien.</text>

  <!-- Stage 1 -->
  <g>
    <rect x="80" y="948" width="305" height="244" rx="12" fill="#15151C" stroke="#2A2A35"/>
    <rect x="104" y="972" width="40" height="40" rx="8" fill="#1E1E28"/>
    <text x="124" y="1000" fill="#D4AF37" font-size="20" font-weight="700" text-anchor="middle">1</text>
    <text x="104" y="1052" fill="#F5F5F7" font-size="20" font-weight="700">Grundlagen</text>
    <rect x="104" y="1064" width="24" height="2" fill="#D4AF37"/>
    <text x="104" y="1100" fill="#9A9AA8" font-size="13">Blockchain, Wallets, Transaktionen,</text>
    <text x="104" y="1118" fill="#9A9AA8" font-size="13">Smart Contracts. Die Basis, auf der</text>
    <text x="104" y="1136" fill="#9A9AA8" font-size="13">alles aufbaut.</text>
    <text x="104" y="1170" fill="#6B6B78" font-size="12" font-weight="500">3 Module · Module 1–3</text>
  </g>

  <!-- Stage 2 -->
  <g>
    <rect x="405" y="948" width="305" height="244" rx="12" fill="#15151C" stroke="#2A2A35"/>
    <rect x="429" y="972" width="40" height="40" rx="8" fill="#1E1E28"/>
    <text x="449" y="1000" fill="#D4AF37" font-size="20" font-weight="700" text-anchor="middle">2</text>
    <text x="429" y="1052" fill="#F5F5F7" font-size="20" font-weight="700">Mechaniken</text>
    <rect x="429" y="1064" width="24" height="2" fill="#D4AF37"/>
    <text x="429" y="1100" fill="#9A9AA8" font-size="13">DEX, Liquidity Pools, Lending,</text>
    <text x="429" y="1118" fill="#9A9AA8" font-size="13">Sicherheiten, Liquidationen und</text>
    <text x="429" y="1136" fill="#9A9AA8" font-size="13">Stablecoins im Detail.</text>
    <text x="429" y="1170" fill="#6B6B78" font-size="12" font-weight="500">5 Module · Module 4–8</text>
  </g>

  <!-- Stage 3 -->
  <g>
    <rect x="730" y="948" width="305" height="244" rx="12" fill="#15151C" stroke="#2A2A35"/>
    <rect x="754" y="972" width="40" height="40" rx="8" fill="#1E1E28"/>
    <text x="774" y="1000" fill="#D4AF37" font-size="20" font-weight="700" text-anchor="middle">3</text>
    <text x="754" y="1052" fill="#F5F5F7" font-size="20" font-weight="700">Strategien</text>
    <rect x="754" y="1064" width="24" height="2" fill="#D4AF37"/>
    <text x="754" y="1100" fill="#9A9AA8" font-size="13">Yield, Leverage Loops, MEV,</text>
    <text x="754" y="1118" fill="#9A9AA8" font-size="13">Flash Loans, veTokenomics –</text>
    <text x="754" y="1136" fill="#9A9AA8" font-size="13">mit Risiko-Perspektive.</text>
    <text x="754" y="1170" fill="#6B6B78" font-size="12" font-weight="500">5 Module · Module 9–13</text>
  </g>

  <!-- Stage 4 -->
  <g>
    <rect x="1055" y="948" width="305" height="244" rx="12" fill="#15151C" stroke="#2A2A35"/>
    <rect x="1079" y="972" width="40" height="40" rx="8" fill="#1E1E28"/>
    <text x="1099" y="1000" fill="#D4AF37" font-size="20" font-weight="700" text-anchor="middle">4</text>
    <text x="1079" y="1052" fill="#F5F5F7" font-size="20" font-weight="700">Infrastruktur</text>
    <rect x="1079" y="1064" width="24" height="2" fill="#D4AF37"/>
    <text x="1079" y="1100" fill="#9A9AA8" font-size="13">Cross-Chain, On-Chain Analytics,</text>
    <text x="1079" y="1118" fill="#9A9AA8" font-size="13">Composability Risk und Portfolio-</text>
    <text x="1079" y="1136" fill="#9A9AA8" font-size="13">Konstruktion.</text>
    <text x="1079" y="1170" fill="#6B6B78" font-size="12" font-weight="500">4 Module · Module 14–17</text>
  </g>

  <!-- ========================================== -->
  <!-- ========== SECTION: AUFBAU EINER LEKTION = -->
  <!-- ========================================== -->

  <text x="80" y="1300" fill="#6B6B78" font-size="11" font-weight="600" letter-spacing="1.5">AUFBAU EINER LEKTION</text>
  <text x="80" y="1344" fill="#F5F5F7" font-size="36" font-weight="700">So läuft eine Lektion ab</text>
  <rect x="80" y="1360" width="48" height="2" fill="#D4AF37"/>
  <text x="80" y="1396" fill="#9A9AA8" font-size="16">Jede der 102 Lektionen folgt derselben strukturierten Reihenfolge.</text>

  <!-- Flow steps -->
  <!-- Step 1: Video -->
  <g>
    <rect x="80" y="1444" width="280" height="180" rx="12" fill="#15151C" stroke="#2A2A35"/>
    <circle cx="220" cy="1510" r="32" fill="#1E1E28" stroke="#D4AF37"/>
    <path d="M 210 1496 L 210 1524 L 234 1510 Z" fill="#D4AF37"/>
    <text x="220" y="1568" fill="#F5F5F7" font-size="16" font-weight="700" text-anchor="middle">Video</text>
    <text x="220" y="1594" fill="#9A9AA8" font-size="12" text-anchor="middle">Voice + Slides, 12–20 Min</text>
  </g>

  <!-- Arrow -->
  <text x="395" y="1540" fill="#4A4A55" font-size="24" text-anchor="middle">→</text>

  <!-- Step 2: Slides -->
  <g>
    <rect x="420" y="1444" width="280" height="180" rx="12" fill="#15151C" stroke="#2A2A35"/>
    <rect x="528" y="1486" width="64" height="44" rx="4" fill="#1E1E28" stroke="#D4AF37"/>
    <rect x="536" y="1494" width="30" height="3" fill="#D4AF37"/>
    <rect x="536" y="1504" width="48" height="2" fill="#4A4A55"/>
    <rect x="536" y="1512" width="42" height="2" fill="#4A4A55"/>
    <rect x="536" y="1520" width="38" height="2" fill="#4A4A55"/>
    <text x="560" y="1568" fill="#F5F5F7" font-size="16" font-weight="700" text-anchor="middle">Slides</text>
    <text x="560" y="1594" fill="#9A9AA8" font-size="12" text-anchor="middle">Zusammenfassung zum Nachlesen</text>
  </g>

  <!-- Arrow -->
  <text x="735" y="1540" fill="#4A4A55" font-size="24" text-anchor="middle">→</text>

  <!-- Step 3: Exercise -->
  <g>
    <rect x="760" y="1444" width="280" height="180" rx="12" fill="#15151C" stroke="#2A2A35"/>
    <rect x="868" y="1486" width="64" height="44" rx="4" fill="#1E1E28" stroke="#D4AF37"/>
    <text x="900" y="1515" fill="#D4AF37" font-size="20" font-weight="700" text-anchor="middle">✏</text>
    <text x="900" y="1568" fill="#F5F5F7" font-size="16" font-weight="700" text-anchor="middle">Übung</text>
    <text x="900" y="1594" fill="#9A9AA8" font-size="12" text-anchor="middle">Reflexion &amp; Anwendung</text>
  </g>

  <!-- Arrow -->
  <text x="1075" y="1540" fill="#4A4A55" font-size="24" text-anchor="middle">→</text>

  <!-- Step 4: Quiz -->
  <g>
    <rect x="1100" y="1444" width="260" height="180" rx="12" fill="#15151C" stroke="#D4AF37"/>
    <circle cx="1230" cy="1510" r="32" fill="#1E1E28" stroke="#D4AF37"/>
    <text x="1230" y="1518" fill="#D4AF37" font-size="22" font-weight="700" text-anchor="middle">✓</text>
    <text x="1230" y="1568" fill="#F5F5F7" font-size="16" font-weight="700" text-anchor="middle">Quiz</text>
    <text x="1230" y="1594" fill="#9A9AA8" font-size="12" text-anchor="middle">Verständnis prüfen</text>
  </g>

  <!-- ========================================== -->
  <!-- ========== SECTION: ALLE 17 MODULE ======= -->
  <!-- ========================================== -->

  <text x="80" y="1748" fill="#6B6B78" font-size="11" font-weight="600" letter-spacing="1.5">KURSINHALT</text>
  <text x="80" y="1792" fill="#F5F5F7" font-size="36" font-weight="700">Alle 17 Module im Überblick</text>
  <rect x="80" y="1808" width="48" height="2" fill="#D4AF37"/>
  <text x="80" y="1844" fill="#9A9AA8" font-size="16">Module 1–3 sind dauerhaft kostenlos. Module 4–17 sind Teil von Pro.</text>

  <!-- Module list -->
  <g font-size="14">
    <!-- Row 01 -->
    <line x1="80" y1="1888" x2="1360" y2="1888" stroke="#2A2A35"/>
    <text x="96" y="1920" fill="#6B6B78" font-family="JetBrains Mono, monospace" font-size="13">01</text>
    <text x="160" y="1920" fill="#F5F5F7" font-weight="500">DeFi Grundlagen</text>
    <text x="600" y="1920" fill="#6B6B78">6 Lektionen</text>
    <rect x="1280" y="1906" width="60" height="22" rx="11" fill="#1E1E28" stroke="#2A2A35"/>
    <text x="1310" y="1921" fill="#9A9AA8" font-size="11" font-weight="500" text-anchor="middle">Free</text>

    <!-- Row 02 -->
    <line x1="80" y1="1944" x2="1360" y2="1944" stroke="#2A2A35"/>
    <text x="96" y="1976" fill="#6B6B78" font-family="JetBrains Mono, monospace" font-size="13">02</text>
    <text x="160" y="1976" fill="#F5F5F7" font-weight="500">Wallets &amp; Sicherheit</text>
    <text x="600" y="1976" fill="#6B6B78">7 Lektionen</text>
    <rect x="1280" y="1962" width="60" height="22" rx="11" fill="#1E1E28" stroke="#2A2A35"/>
    <text x="1310" y="1977" fill="#9A9AA8" font-size="11" font-weight="500" text-anchor="middle">Free</text>

    <!-- Row 03 -->
    <line x1="80" y1="2000" x2="1360" y2="2000" stroke="#2A2A35"/>
    <text x="96" y="2032" fill="#6B6B78" font-family="JetBrains Mono, monospace" font-size="13">03</text>
    <text x="160" y="2032" fill="#F5F5F7" font-weight="500">Blockchain Mechanik</text>
    <text x="600" y="2032" fill="#6B6B78">8 Lektionen</text>
    <rect x="1280" y="2018" width="60" height="22" rx="11" fill="#1E1E28" stroke="#2A2A35"/>
    <text x="1310" y="2033" fill="#9A9AA8" font-size="11" font-weight="500" text-anchor="middle">Free</text>

    <!-- Row 04 -->
    <line x1="80" y1="2056" x2="1360" y2="2056" stroke="#2A2A35"/>
    <text x="96" y="2088" fill="#6B6B78" font-family="JetBrains Mono, monospace" font-size="13">04</text>
    <text x="160" y="2088" fill="#F5F5F7" font-weight="500">DEX Mechanik</text>
    <text x="600" y="2088" fill="#6B6B78">6 Lektionen</text>
    <rect x="1276" y="2074" width="68" height="22" rx="11" fill="#1E1E28" stroke="#D4AF37"/>
    <text x="1310" y="2089" fill="#D4AF37" font-size="11" font-weight="600" text-anchor="middle">🔒 Pro</text>

    <!-- Row 05 -->
    <line x1="80" y1="2112" x2="1360" y2="2112" stroke="#2A2A35"/>
    <text x="96" y="2144" fill="#6B6B78" font-family="JetBrains Mono, monospace" font-size="13">05</text>
    <text x="160" y="2144" fill="#F5F5F7" font-weight="500">Liquidity Pools</text>
    <text x="600" y="2144" fill="#6B6B78">7 Lektionen</text>
    <rect x="1276" y="2130" width="68" height="22" rx="11" fill="#1E1E28" stroke="#D4AF37"/>
    <text x="1310" y="2145" fill="#D4AF37" font-size="11" font-weight="600" text-anchor="middle">🔒 Pro</text>

    <!-- Row 06 -->
    <line x1="80" y1="2168" x2="1360" y2="2168" stroke="#2A2A35"/>
    <text x="96" y="2200" fill="#6B6B78" font-family="JetBrains Mono, monospace" font-size="13">06</text>
    <text x="160" y="2200" fill="#F5F5F7" font-weight="500">Lending Markets</text>
    <text x="600" y="2200" fill="#6B6B78">6 Lektionen</text>
    <rect x="1276" y="2186" width="68" height="22" rx="11" fill="#1E1E28" stroke="#D4AF37"/>
    <text x="1310" y="2201" fill="#D4AF37" font-size="11" font-weight="600" text-anchor="middle">🔒 Pro</text>

    <!-- Row 07 -->
    <line x1="80" y1="2224" x2="1360" y2="2224" stroke="#2A2A35"/>
    <text x="96" y="2256" fill="#6B6B78" font-family="JetBrains Mono, monospace" font-size="13">07</text>
    <text x="160" y="2256" fill="#F5F5F7" font-weight="500">Sicherheiten &amp; Liquidationen</text>
    <text x="600" y="2256" fill="#6B6B78">5 Lektionen</text>
    <rect x="1276" y="2242" width="68" height="22" rx="11" fill="#1E1E28" stroke="#D4AF37"/>
    <text x="1310" y="2257" fill="#D4AF37" font-size="11" font-weight="600" text-anchor="middle">🔒 Pro</text>

    <!-- Row 08 -->
    <line x1="80" y1="2280" x2="1360" y2="2280" stroke="#2A2A35"/>
    <text x="96" y="2312" fill="#6B6B78" font-family="JetBrains Mono, monospace" font-size="13">08</text>
    <text x="160" y="2312" fill="#F5F5F7" font-weight="500">Stablecoins</text>
    <text x="600" y="2312" fill="#6B6B78">6 Lektionen</text>
    <rect x="1276" y="2298" width="68" height="22" rx="11" fill="#1E1E28" stroke="#D4AF37"/>
    <text x="1310" y="2313" fill="#D4AF37" font-size="11" font-weight="600" text-anchor="middle">🔒 Pro</text>

    <!-- Row: collapsed -->
    <line x1="80" y1="2336" x2="1360" y2="2336" stroke="#2A2A35"/>
    <text x="96" y="2368" fill="#6B6B78" font-family="JetBrains Mono, monospace" font-size="13">09–17</text>
    <text x="160" y="2368" fill="#9A9AA8" font-weight="500">Yield, Leverage, MEV, Flash Loans, veTokenomics, Cross-Chain, Analytics, Composability Risk, Portfolio</text>
    <rect x="1276" y="2354" width="68" height="22" rx="11" fill="#1E1E28" stroke="#D4AF37"/>
    <text x="1310" y="2369" fill="#D4AF37" font-size="11" font-weight="600" text-anchor="middle">🔒 Pro</text>
    <line x1="80" y1="2392" x2="1360" y2="2392" stroke="#2A2A35"/>
  </g>

  <!-- ========================================== -->
  <!-- ========== SECTION: FREE VS PRO ========== -->
  <!-- ========================================== -->

  <text x="80" y="2496" fill="#6B6B78" font-size="11" font-weight="600" letter-spacing="1.5">ZUGANG</text>
  <text x="80" y="2540" fill="#F5F5F7" font-size="36" font-weight="700">Free oder Pro</text>
  <rect x="80" y="2556" width="48" height="2" fill="#D4AF37"/>
  <text x="80" y="2592" fill="#9A9AA8" font-size="16">Starte kostenlos. Upgrade, wenn du weitergehen willst.</text>

  <!-- Free card -->
  <g>
    <rect x="80" y="2636" width="625" height="360" rx="12" fill="#15151C" stroke="#2A2A35"/>
    <text x="112" y="2680" fill="#6B6B78" font-size="11" font-weight="600" letter-spacing="1.5">FREE</text>
    <text x="112" y="2724" fill="#F5F5F7" font-size="44" font-weight="700">0 €</text>
    <text x="112" y="2752" fill="#9A9AA8" font-size="14">Dauerhaft kostenlos, keine Kreditkarte.</text>

    <line x1="112" y1="2780" x2="673" y2="2780" stroke="#2A2A35"/>

    <text x="112" y="2810" fill="#F5F5F7" font-size="14">
      <tspan fill="#4ADE80">✓</tspan>  Module 1–3 (Grundlagen)
    </text>
    <text x="112" y="2838" fill="#F5F5F7" font-size="14">
      <tspan fill="#4ADE80">✓</tspan>  21 Lektionen mit Video + Slides
    </text>
    <text x="112" y="2866" fill="#F5F5F7" font-size="14">
      <tspan fill="#4ADE80">✓</tspan>  Übungen und Quiz
    </text>
    <text x="112" y="2894" fill="#F5F5F7" font-size="14">
      <tspan fill="#4ADE80">✓</tspan>  Fortschritts-Tracking
    </text>

    <rect x="112" y="2930" width="561" height="44" rx="22" fill="#1E1E28" stroke="#2A2A35"/>
    <text x="392" y="2958" fill="#F5F5F7" font-size="14" font-weight="600" text-anchor="middle">Kostenlos starten</text>
  </g>

  <!-- Pro card -->
  <g>
    <rect x="735" y="2636" width="625" height="360" rx="12" fill="#15151C" stroke="#D4AF37" stroke-width="1.5"/>
    <rect x="735" y="2636" width="4" height="360" rx="2" fill="#D4AF37"/>
    <text x="767" y="2680" fill="#D4AF37" font-size="11" font-weight="600" letter-spacing="1.5">PRO · EMPFOHLEN</text>
    <text x="767" y="2724" fill="#F5F5F7" font-size="44" font-weight="700">49 $
      <tspan fill="#6B6B78" font-size="18" font-weight="500"> / Monat</tspan>
    </text>
    <text x="767" y="2752" fill="#9A9AA8" font-size="14">Vollzugriff auf den gesamten Kurs.</text>

    <line x1="767" y1="2780" x2="1328" y2="2780" stroke="#2A2A35"/>

    <text x="767" y="2810" fill="#F5F5F7" font-size="14">
      <tspan fill="#D4AF37">✓</tspan>  Alle 17 Module, 102 Lektionen
    </text>
    <text x="767" y="2838" fill="#F5F5F7" font-size="14">
      <tspan fill="#D4AF37">✓</tspan>  Protokollmechaniken &amp; Strategien
    </text>
    <text x="767" y="2866" fill="#F5F5F7" font-size="14">
      <tspan fill="#D4AF37">✓</tspan>  Fortgeschrittene Themen (MEV, Flash Loans, veTokenomics)
    </text>
    <text x="767" y="2894" fill="#F5F5F7" font-size="14">
      <tspan fill="#D4AF37">✓</tspan>  Cross-Chain, Analytics &amp; Portfolio-Konstruktion
    </text>

    <rect x="767" y="2930" width="561" height="44" rx="22" fill="#D4AF37"/>
    <text x="1047" y="2958" fill="#0B0B0F" font-size="14" font-weight="700" text-anchor="middle">Pro werden  →</text>
  </g>

  <!-- ========================================== -->
  <!-- ========== FOOTER ======================== -->
  <!-- ========================================== -->
  <line x1="0" y1="3072" x2="1440" y2="3072" stroke="#15151C"/>

  <!-- Footer content -->
  <rect x="80" y="3096" width="4" height="20" fill="#D4AF37"/>
  <text x="92" y="3112" fill="#F5F5F7" font-size="14" font-weight="700">DeFi Akademie</text>
  <text x="80" y="3140" fill="#6B6B78" font-size="12">Strukturiertes DeFi-Wissen · Keine Renditeversprechen</text>

  <!-- Footer links -->
  <text x="900" y="3112" fill="#9A9AA8" font-size="13">Kurs</text>
  <text x="980" y="3112" fill="#9A9AA8" font-size="13">Preise</text>
  <text x="1060" y="3112" fill="#9A9AA8" font-size="13">Login</text>

  <text x="900" y="3140" fill="#6B6B78" font-size="12">Impressum</text>
  <text x="1000" y="3140" fill="#6B6B78" font-size="12">Datenschutz</text>
  <text x="1110" y="3140" fill="#6B6B78" font-size="12">AGB</text>

  <text x="80" y="3180" fill="#4A4A55" font-size="11">© 2026 DeFi Akademie. Alle Inhalte dienen Bildungszwecken. Keine Finanzberatung.</text>
</svg>
