<svg xmlns="http://www.w3.org/2000/svg" viewBox="0 0 1440 1600" font-family="Inter, system-ui, sans-serif">
  <!-- Background -->
  <rect width="1440" height="1600" fill="#0B0B0F"/>

  <!-- ========== TOP NAV ========== -->
  <rect x="0" y="0" width="1440" height="72" fill="#15151C"/>
  <line x1="0" y1="72" x2="1440" y2="72" stroke="#2A2A35" stroke-width="1"/>

  <!-- Logo -->
  <rect x="80" y="26" width="4" height="20" fill="#D4AF37"/>
  <text x="92" y="42" fill="#F5F5F7" font-size="16" font-weight="700">DeFi Akademie</text>

  <!-- Nav Items -->
  <text x="340" y="43" fill="#9A9AA8" font-size="14" font-weight="500">Dashboard</text>
  <text x="430" y="43" fill="#F5F5F7" font-size="14" font-weight="600">Kurs</text>
  <rect x="430" y="50" width="32" height="2" fill="#D4AF37"/>
  <text x="480" y="43" fill="#9A9AA8" font-size="14" font-weight="500">Fortschritt</text>

  <!-- Profile -->
  <circle cx="1340" cy="36" r="16" fill="#1E1E28" stroke="#2A2A35"/>
  <text x="1340" y="41" fill="#D4AF37" font-size="12" font-weight="600" text-anchor="middle">M</text>
  <text x="1365" y="41" fill="#9A9AA8" font-size="12">▾</text>

  <!-- ========== BREADCRUMB ========== -->
  <text x="80" y="118" fill="#6B6B78" font-size="13">
    <tspan>Dashboard</tspan>
    <tspan fill="#4A4A55"> › </tspan>
    <tspan fill="#9A9AA8" font-weight="500">Kurs</tspan>
  </text>

  <!-- ========== PAGE HEADER ========== -->
  <text x="80" y="178" fill="#F5F5F7" font-size="40" font-weight="700">Alle Module</text>
  <rect x="80" y="192" width="48" height="2" fill="#D4AF37"/>
  <text x="80" y="228" fill="#9A9AA8" font-size="16">17 Module · 102 Lektionen · strukturiertes DeFi-Wissen</text>

  <!-- ========== PROGRESS SUMMARY CARD ========== -->
  <rect x="80" y="268" width="1280" height="88" rx="12" fill="#15151C" stroke="#2A2A35"/>
  <text x="112" y="304" fill="#9A9AA8" font-size="12" font-weight="500" letter-spacing="1.5">DEIN FORTSCHRITT</text>
  <text x="112" y="336" fill="#F5F5F7" font-size="22" font-weight="700">43 von 102 Lektionen abgeschlossen</text>

  <!-- Progress bar -->
  <rect x="780" y="308" width="548" height="8" rx="4" fill="#1E1E28"/>
  <rect x="780" y="308" width="230" height="8" rx="4" fill="#D4AF37"/>
  <text x="1328" y="304" fill="#D4AF37" font-size="14" font-weight="600" text-anchor="end">42 %</text>
  <text x="1328" y="336" fill="#6B6B78" font-size="12" text-anchor="end">Tier: Free</text>

  <!-- ========== GROUP 1: GRUNDLAGEN ========== -->
  <text x="80" y="414" fill="#9A9AA8" font-size="12" font-weight="600" letter-spacing="1.5">GRUNDLAGEN · MODUL 1 – 3</text>
  <text x="80" y="444" fill="#F5F5F7" font-size="24" font-weight="700">Grundlagen</text>
  <text x="80" y="470" fill="#6B6B78" font-size="14">Blockchain, Wallets, Sicherheit und die Basis von DeFi.</text>

  <!-- Card 1 — Modul 1 (completed) -->
  <g>
    <rect x="80" y="500" width="405" height="200" rx="12" fill="#15151C" stroke="#2A2A35"/>
    <rect x="80" y="500" width="4" height="200" rx="2" fill="#4ADE80"/>
    <text x="112" y="536" fill="#6B6B78" font-size="11" font-weight="600" letter-spacing="1.5">MODUL 01</text>
    <rect x="400" y="522" width="60" height="22" rx="11" fill="#15151C" stroke="#2A2A35"/>
    <text x="430" y="537" fill="#9A9AA8" font-size="11" font-weight="500" text-anchor="middle">Free</text>
    <text x="112" y="572" fill="#F5F5F7" font-size="20" font-weight="700">DeFi Grundlagen</text>
    <text x="112" y="602" fill="#9A9AA8" font-size="13">Einführung in Decentralized Finance, Kern-</text>
    <text x="112" y="620" fill="#9A9AA8" font-size="13">konzepte und Abgrenzung zu TradFi.</text>
    <text x="112" y="660" fill="#6B6B78" font-size="12">6 Lektionen · 90 Min.</text>
    <rect x="112" y="672" width="200" height="6" rx="3" fill="#1E1E28"/>
    <rect x="112" y="672" width="200" height="6" rx="3" fill="#4ADE80"/>
    <text x="436" y="678" fill="#4ADE80" font-size="12" font-weight="600" text-anchor="end">✓ Fertig</text>
  </g>

  <!-- Card 2 — Modul 2 (completed) -->
  <g>
    <rect x="517" y="500" width="405" height="200" rx="12" fill="#15151C" stroke="#2A2A35"/>
    <rect x="517" y="500" width="4" height="200" rx="2" fill="#4ADE80"/>
    <text x="549" y="536" fill="#6B6B78" font-size="11" font-weight="600" letter-spacing="1.5">MODUL 02</text>
    <rect x="837" y="522" width="60" height="22" rx="11" fill="#15151C" stroke="#2A2A35"/>
    <text x="867" y="537" fill="#9A9AA8" font-size="11" font-weight="500" text-anchor="middle">Free</text>
    <text x="549" y="572" fill="#F5F5F7" font-size="20" font-weight="700">Wallets &amp; Sicherheit</text>
    <text x="549" y="602" fill="#9A9AA8" font-size="13">Hot Wallets, Cold Wallets, Seed-Phrase-</text>
    <text x="549" y="620" fill="#9A9AA8" font-size="13">Management und typische Angriffsvektoren.</text>
    <text x="549" y="660" fill="#6B6B78" font-size="12">7 Lektionen · 110 Min.</text>
    <rect x="549" y="672" width="200" height="6" rx="3" fill="#1E1E28"/>
    <rect x="549" y="672" width="200" height="6" rx="3" fill="#4ADE80"/>
    <text x="873" y="678" fill="#4ADE80" font-size="12" font-weight="600" text-anchor="end">✓ Fertig</text>
  </g>

  <!-- Card 3 — Modul 3 (in progress) -->
  <g>
    <rect x="954" y="500" width="405" height="200" rx="12" fill="#15151C" stroke="#D4AF37" stroke-width="1.5"/>
    <rect x="954" y="500" width="4" height="200" rx="2" fill="#D4AF37"/>
    <text x="986" y="536" fill="#D4AF37" font-size="11" font-weight="600" letter-spacing="1.5">MODUL 03 · AKTUELL</text>
    <rect x="1274" y="522" width="60" height="22" rx="11" fill="#15151C" stroke="#2A2A35"/>
    <text x="1304" y="537" fill="#9A9AA8" font-size="11" font-weight="500" text-anchor="middle">Free</text>
    <text x="986" y="572" fill="#F5F5F7" font-size="20" font-weight="700">Blockchain Mechanik</text>
    <text x="986" y="602" fill="#9A9AA8" font-size="13">Transaktionen, Gas, Konsens und wie</text>
    <text x="986" y="620" fill="#9A9AA8" font-size="13">Smart Contracts tatsächlich ausgeführt werden.</text>
    <text x="986" y="660" fill="#6B6B78" font-size="12">8 Lektionen · 130 Min.</text>
    <rect x="986" y="672" width="200" height="6" rx="3" fill="#1E1E28"/>
    <rect x="986" y="672" width="110" height="6" rx="3" fill="#D4AF37"/>
    <text x="1310" y="678" fill="#D4AF37" font-size="12" font-weight="600" text-anchor="end">55 %</text>
  </g>

  <!-- ========== GROUP 2: PROTOKOLLMECHANIKEN ========== -->
  <text x="80" y="762" fill="#9A9AA8" font-size="12" font-weight="600" letter-spacing="1.5">PROTOKOLLMECHANIKEN · MODUL 4 – 8</text>
  <text x="80" y="792" fill="#F5F5F7" font-size="24" font-weight="700">Protokollmechaniken</text>
  <text x="80" y="818" fill="#6B6B78" font-size="14">DEX, Liquidity Pools, Lending, Sicherheiten, Stablecoins.</text>

  <!-- Card 4 — DEX Mechanik (locked, Pro) -->
  <g opacity="0.7">
    <rect x="80" y="848" width="405" height="200" rx="12" fill="#15151C" stroke="#2A2A35"/>
    <rect x="80" y="848" width="4" height="200" rx="2" fill="#4A4A55"/>
    <text x="112" y="884" fill="#6B6B78" font-size="11" font-weight="600" letter-spacing="1.5">MODUL 04</text>
    <rect x="392" y="870" width="68" height="22" rx="11" fill="#1E1E28" stroke="#D4AF37"/>
    <text x="426" y="885" fill="#D4AF37" font-size="11" font-weight="600" text-anchor="middle">🔒 Pro</text>
    <text x="112" y="920" fill="#9A9AA8" font-size="20" font-weight="700">DEX Mechanik</text>
    <text x="112" y="950" fill="#6B6B78" font-size="13">AMMs, Constant Product, Preisbildung,</text>
    <text x="112" y="968" fill="#6B6B78" font-size="13">Slippage und Orderbuch-DEXes.</text>
    <text x="112" y="1008" fill="#6B6B78" font-size="12">6 Lektionen · 120 Min.</text>
    <text x="436" y="1014" fill="#6B6B78" font-size="12" font-weight="500" text-anchor="end">Upgrade erforderlich</text>
  </g>

  <!-- Card 5 — Liquidity Pools (locked) -->
  <g opacity="0.7">
    <rect x="517" y="848" width="405" height="200" rx="12" fill="#15151C" stroke="#2A2A35"/>
    <rect x="517" y="848" width="4" height="200" rx="2" fill="#4A4A55"/>
    <text x="549" y="884" fill="#6B6B78" font-size="11" font-weight="600" letter-spacing="1.5">MODUL 05</text>
    <rect x="829" y="870" width="68" height="22" rx="11" fill="#1E1E28" stroke="#D4AF37"/>
    <text x="863" y="885" fill="#D4AF37" font-size="11" font-weight="600" text-anchor="middle">🔒 Pro</text>
    <text x="549" y="920" fill="#9A9AA8" font-size="20" font-weight="700">Liquidity Pools</text>
    <text x="549" y="950" fill="#6B6B78" font-size="13">Pool-Shares, Impermanent Loss,</text>
    <text x="549" y="968" fill="#6B6B78" font-size="13">Fee-Tiers und Concentrated Liquidity.</text>
    <text x="549" y="1008" fill="#6B6B78" font-size="12">7 Lektionen · 140 Min.</text>
    <text x="873" y="1014" fill="#6B6B78" font-size="12" font-weight="500" text-anchor="end">Upgrade erforderlich</text>
  </g>

  <!-- Card 6 — Lending Markets (locked) -->
  <g opacity="0.7">
    <rect x="954" y="848" width="405" height="200" rx="12" fill="#15151C" stroke="#2A2A35"/>
    <rect x="954" y="848" width="4" height="200" rx="2" fill="#4A4A55"/>
    <text x="986" y="884" fill="#6B6B78" font-size="11" font-weight="600" letter-spacing="1.5">MODUL 06</text>
    <rect x="1266" y="870" width="68" height="22" rx="11" fill="#1E1E28" stroke="#D4AF37"/>
    <text x="1300" y="885" fill="#D4AF37" font-size="11" font-weight="600" text-anchor="middle">🔒 Pro</text>
    <text x="986" y="920" fill="#9A9AA8" font-size="20" font-weight="700">Lending Markets</text>
    <text x="986" y="950" fill="#6B6B78" font-size="13">Zinsmodelle, Utilization, Health Factor</text>
    <text x="986" y="968" fill="#6B6B78" font-size="13">und Aave/Compound im Vergleich.</text>
    <text x="986" y="1008" fill="#6B6B78" font-size="12">6 Lektionen · 130 Min.</text>
    <text x="1310" y="1014" fill="#6B6B78" font-size="12" font-weight="500" text-anchor="end">Upgrade erforderlich</text>
  </g>

  <!-- Card 7 — Sicherheiten (locked) -->
  <g opacity="0.7">
    <rect x="80" y="1076" width="405" height="200" rx="12" fill="#15151C" stroke="#2A2A35"/>
    <rect x="80" y="1076" width="4" height="200" rx="2" fill="#4A4A55"/>
    <text x="112" y="1112" fill="#6B6B78" font-size="11" font-weight="600" letter-spacing="1.5">MODUL 07</text>
    <rect x="392" y="1098" width="68" height="22" rx="11" fill="#1E1E28" stroke="#D4AF37"/>
    <text x="426" y="1113" fill="#D4AF37" font-size="11" font-weight="600" text-anchor="middle">🔒 Pro</text>
    <text x="112" y="1148" fill="#9A9AA8" font-size="20" font-weight="700">Sicherheiten &amp; Liquidationen</text>
    <text x="112" y="1178" fill="#6B6B78" font-size="13">LTV, Liquidation Threshold, Bad Debt</text>
    <text x="112" y="1196" fill="#6B6B78" font-size="13">und Auction-Mechaniken.</text>
    <text x="112" y="1236" fill="#6B6B78" font-size="12">5 Lektionen · 95 Min.</text>
    <text x="436" y="1242" fill="#6B6B78" font-size="12" font-weight="500" text-anchor="end">Upgrade erforderlich</text>
  </g>

  <!-- Card 8 — Stablecoins (locked) -->
  <g opacity="0.7">
    <rect x="517" y="1076" width="405" height="200" rx="12" fill="#15151C" stroke="#2A2A35"/>
    <rect x="517" y="1076" width="4" height="200" rx="2" fill="#4A4A55"/>
    <text x="549" y="1112" fill="#6B6B78" font-size="11" font-weight="600" letter-spacing="1.5">MODUL 08</text>
    <rect x="829" y="1098" width="68" height="22" rx="11" fill="#1E1E28" stroke="#D4AF37"/>
    <text x="863" y="1113" fill="#D4AF37" font-size="11" font-weight="600" text-anchor="middle">🔒 Pro</text>
    <text x="549" y="1148" fill="#9A9AA8" font-size="20" font-weight="700">Stablecoins</text>
    <text x="549" y="1178" fill="#6B6B78" font-size="13">Fiat-backed, crypto-backed, algo-</t>
    <text x="549" y="1196" fill="#6B6B78" font-size="13">rithmisch – Risiken &amp; Peg-Stabilität.</text>
    <text x="549" y="1236" fill="#6B6B78" font-size="12">6 Lektionen · 115 Min.</text>
    <text x="873" y="1242" fill="#6B6B78" font-size="12" font-weight="500" text-anchor="end">Upgrade erforderlich</text>
  </g>

  <!-- Card "Weitere Module" -->
  <g>
    <rect x="954" y="1076" width="405" height="200" rx="12" fill="#15151C" stroke="#2A2A35" stroke-dasharray="6 4"/>
    <text x="1156" y="1152" fill="#D4AF37" font-size="18" font-weight="700" text-anchor="middle">9 weitere Module</text>
    <text x="1156" y="1182" fill="#9A9AA8" font-size="13" text-anchor="middle">Yield, Leverage, MEV, Flash Loans,</text>
    <text x="1156" y="1200" fill="#9A9AA8" font-size="13" text-anchor="middle">veTokenomics, Cross-Chain, Analytics,</text>
    <text x="1156" y="1218" fill="#9A9AA8" font-size="13" text-anchor="middle">Composability Risk, Portfolio.</text>
    <rect x="1076" y="1240" width="160" height="28" rx="14" fill="#D4AF37"/>
    <text x="1156" y="1259" fill="#0B0B0F" font-size="13" font-weight="600" text-anchor="middle">Alle ansehen →</text>
  </g>

  <!-- ========== UPGRADE BANNER ========== -->
  <rect x="80" y="1336" width="1280" height="136" rx="12" fill="#15151C" stroke="#D4AF37"/>
  <rect x="80" y="1336" width="4" height="136" rx="2" fill="#D4AF37"/>
  <text x="112" y="1374" fill="#D4AF37" font-size="11" font-weight="600" letter-spacing="1.5">PRO TIER</text>
  <text x="112" y="1408" fill="#F5F5F7" font-size="24" font-weight="700">Schalte alle 17 Module frei</text>
  <text x="112" y="1440" fill="#9A9AA8" font-size="14">Zugriff auf 102 Lektionen, Quizze und Übungen zu Protokollmechaniken,</text>
  <text x="112" y="1460" fill="#9A9AA8" font-size="14">Strategien und fortgeschrittener DeFi-Infrastruktur.</text>
  <rect x="1180" y="1388" width="160" height="44" rx="22" fill="#D4AF37"/>
  <text x="1260" y="1416" fill="#0B0B0F" font-size="14" font-weight="700" text-anchor="middle">Pro werden</text>
  <text x="1340" y="1456" fill="#6B6B78" font-size="12" text-anchor="end">49 $ / Monat</text>

  <!-- Footer hint -->
  <text x="720" y="1544" fill="#4A4A55" font-size="12" text-anchor="middle">DeFi Akademie · Strukturiertes DeFi-Wissen · Keine Renditeversprechen</text>
</svg>
